<svg width="150" height="150" viewBox="0 0 150 150" fill="none" xmlns="http://www.w3.org/2000/svg">
<g clip-path="url(#clip0_45_349)">
<path d="M75.0006 150C116.422 150 150 116.422 150 75.0006C150 33.5795 116.422 0.00100708 75.0006 0.00100708C33.5794 0.00100708 0.000976562 33.5795 0.000976562 75.0006C0.000976562 116.422 33.5794 150 75.0006 150Z" fill="#2C3E50"/>
<path d="M121.142 53.1616C121.142 54.4571 121.085 55.7359 120.987 57.0059C120.806 59.1616 120.478 61.2679 120.02 63.3256C119.38 66.1861 118.471 68.9406 117.323 71.5635C116.241 74.0636 114.937 76.4482 113.446 78.686C112.258 80.4734 110.945 82.17 109.528 83.7676C109.176 84.1615 108.822 84.5466 108.462 84.9237C107.282 86.1777 106.027 87.3496 104.717 88.4482C104.38 88.7353 104.045 89.0143 103.7 89.2845C102.069 90.5872 100.34 91.7847 98.5364 92.8498C97.9791 93.1862 97.4051 93.5059 96.8311 93.8177C92.2079 96.309 87.1095 98.0303 81.7162 98.8092C79.5278 99.1368 77.2811 99.3011 75.0034 99.3011C72.7576 99.3011 70.5524 99.1368 68.3967 98.8251C62.9539 98.0462 57.8149 96.317 53.159 93.8177C52.3969 93.3999 51.6427 92.9726 50.9132 92.5221C48.6913 91.1613 46.6017 89.6202 44.6509 87.9077C44.4372 87.7267 44.2164 87.5386 44.0115 87.3425C42.5526 86.023 41.1757 84.6048 39.8969 83.1051C39.6594 82.8261 39.4218 82.5479 39.1922 82.2609C37.266 79.8923 35.5687 77.3347 34.1353 74.6137C33.9958 74.3514 33.865 74.0891 33.7335 73.8269C32.6189 71.6057 31.6758 69.2778 30.9216 66.8677C30.7741 66.3846 30.6346 65.9007 30.5039 65.4168C29.815 62.9246 29.3311 60.3511 29.0776 57.7043C29.0369 57.2618 28.9955 56.8193 28.9628 56.3681C28.8974 55.3102 28.856 54.2371 28.856 53.1624C28.856 52.515 28.8727 51.8756 28.8974 51.2363C28.9054 50.9166 28.9221 50.6056 28.9468 50.2859C29.0696 48.1956 29.3399 46.1379 29.7417 44.1304C29.8318 43.6792 29.9298 43.2288 30.0287 42.7855C30.3978 41.187 30.8483 39.6133 31.3816 38.089C31.5698 37.5317 31.7747 36.9744 31.9883 36.4331C32.6357 34.7525 33.3899 33.1214 34.2262 31.5476C34.8903 30.2935 35.6118 29.0722 36.3899 27.8923C36.8898 27.1221 37.4143 26.3759 37.9636 25.6385C38.5616 24.8269 39.193 24.04 39.8491 23.2778C40.9963 21.9249 42.2177 20.6469 43.5045 19.4575C43.9469 19.0397 44.3894 18.6379 44.8486 18.2449C46.5778 16.7452 48.4139 15.3756 50.3567 14.155C51.0121 13.7373 51.6762 13.3354 52.3562 12.9584C53.34 12.4011 54.3477 11.8757 55.3809 11.3926C56.0203 11.0896 56.6677 10.8026 57.3238 10.5316C59.2579 9.72873 61.2494 9.05586 63.3071 8.51533C64.3395 8.24507 65.3887 8.01546 66.4546 7.81934C68.0611 7.51639 69.6922 7.29475 71.356 7.16321C72.1916 7.09784 73.0358 7.05638 73.8889 7.04044C74.258 7.03246 74.6263 7.02449 75.0034 7.02449C75.8884 7.02449 76.7653 7.04921 77.6343 7.09863C78.1916 7.13132 78.7489 7.17198 79.2982 7.22141C81.6181 7.43507 83.8799 7.82014 86.0771 8.36944C86.5857 8.49221 87.0856 8.62375 87.5855 8.76327C90.0689 9.46803 92.4622 10.3697 94.7575 11.4595C95.4128 11.7713 96.053 12.091 96.6924 12.4354C97.889 13.066 99.0442 13.7548 100.175 14.493C100.372 14.6246 100.577 14.7553 100.774 14.8869C102.348 15.952 103.864 17.116 105.291 18.3708C106.241 19.1824 107.143 20.0426 108.012 20.9451C109.372 22.3299 110.643 23.7976 111.807 25.3467C112.045 25.6496 112.274 25.9534 112.486 26.2643C113.635 27.8548 114.675 29.5099 115.61 31.2399C115.782 31.5516 115.946 31.8713 116.101 32.1822C117.634 35.1743 118.847 38.3465 119.7 41.6662C120.134 43.3547 120.471 45.076 120.708 46.8299C120.995 48.8995 121.142 51.0146 121.142 53.1616Z" fill="#141720"/>
<path d="M46.7492 84.3504C46.7492 84.3911 46.7492 84.4326 46.7412 84.4732C46.7006 85.9569 45.8722 87.2357 44.6509 87.9077C44.4946 87.9978 44.3391 88.0799 44.1669 88.1373C43.7077 88.3263 43.1999 88.4243 42.6753 88.4243C40.4295 88.4243 38.6094 86.5971 38.6094 84.3504C38.6094 83.9654 38.6668 83.5883 38.7648 83.2279C38.8637 82.8835 39.0112 82.5558 39.1914 82.2609C39.8961 81.081 41.1916 80.2853 42.6753 80.2853C43.0436 80.2853 43.3968 80.3347 43.7324 80.4248C44.257 80.5556 44.7322 80.7931 45.1428 81.1128C45.4951 81.3831 45.7981 81.7028 46.0524 82.0719C46.4949 82.7193 46.7492 83.5062 46.7492 84.3504Z" fill="#141720"/>
<path d="M35.5934 40.4735C35.5934 41.2604 35.3638 41.9986 34.97 42.6213C34.2565 43.7773 32.9785 44.5394 31.5195 44.5394C30.8802 44.5394 30.2814 44.3919 29.7409 44.1297C29.4459 43.9901 29.1757 43.81 28.9293 43.613C28.0276 42.8668 27.4536 41.7363 27.4536 40.4735C27.4536 38.6542 28.6423 37.1211 30.2735 36.5965C30.6673 36.465 31.085 36.3996 31.5195 36.3996C31.675 36.3996 31.8313 36.4084 31.9867 36.4331C33.806 36.63 35.257 38.0316 35.536 39.8262C35.5767 40.039 35.5934 40.2519 35.5934 40.4735Z" fill="#141720"/>
<path d="M58.3969 13.2852C58.3969 14.1702 58.1099 14.9985 57.6339 15.6618C57.0767 16.4407 56.2404 17.0139 55.2821 17.2435C54.9783 17.3177 54.6586 17.3583 54.331 17.3583C52.3801 17.3583 50.749 15.9895 50.3559 14.1534C50.2906 13.8744 50.2571 13.5794 50.2571 13.2844C50.2571 12.9241 50.3065 12.5797 50.3966 12.252C50.8478 10.506 52.4455 9.2193 54.331 9.2193C54.7655 9.2193 55.1753 9.28467 55.5683 9.40824C56.2483 9.62908 56.8471 10.0149 57.323 10.5308C57.9871 11.2523 58.3969 12.2193 58.3969 13.2852Z" fill="#141720"/>
<path d="M96.7114 19.0995C98.9588 19.0995 100.781 17.2777 100.781 15.0304C100.781 12.7831 98.9588 10.9613 96.7114 10.9613C94.4641 10.9613 92.6423 12.7831 92.6423 15.0304C92.6423 17.2777 94.4641 19.0995 96.7114 19.0995Z" fill="#141720"/>
<path d="M34.7572 53.9572C34.7572 54.4739 34.6583 54.9737 34.4782 55.4242C33.8882 56.9485 32.4125 58.0311 30.6833 58.0311C30.1093 58.0311 29.568 57.9163 29.0769 57.7035C28.7404 57.556 28.4295 57.3591 28.1425 57.1382C27.2161 56.392 26.6182 55.2448 26.6182 53.958C26.6182 52.5724 27.307 51.3511 28.3641 50.6136C28.5443 50.4908 28.7412 50.376 28.9461 50.286C29.4707 50.0316 30.0606 49.8921 30.6841 49.8921C32.4053 49.8921 33.881 50.9572 34.471 52.4664C34.6591 52.924 34.7572 53.4319 34.7572 53.9572Z" fill="#141720"/>
<path d="M106.154 90.1161C108.401 90.1161 110.223 88.2943 110.223 86.047C110.223 83.7996 108.401 81.9778 106.154 81.9778C103.907 81.9778 102.085 83.7996 102.085 86.047C102.085 88.2943 103.907 90.1161 106.154 90.1161Z" fill="#141720"/>
<path d="M110.34 85.3821C112.587 85.3821 114.409 83.5603 114.409 81.3129C114.409 79.0656 112.587 77.2438 110.34 77.2438C108.092 77.2438 106.271 79.0656 106.271 81.3129C106.271 83.5603 108.092 85.3821 110.34 85.3821Z" fill="#141720"/>
<path d="M100.777 93.5203C103.024 93.5203 104.846 91.6985 104.846 89.4512C104.846 87.2039 103.024 85.3821 100.777 85.3821C98.5293 85.3821 96.7075 87.2039 96.7075 89.4512C96.7075 91.6985 98.5293 93.5203 100.777 93.5203Z" fill="#141720"/>
<path d="M79.3884 8.08004C79.3884 9.59639 78.5608 10.9166 77.3307 11.6134C76.7328 11.9578 76.0439 12.1539 75.3145 12.1539C75.2076 12.1539 75.1096 12.1539 75.0027 12.1372C74.2071 12.0798 73.4776 11.7928 72.8797 11.3344C71.8879 10.5969 71.2485 9.40824 71.2485 8.08004C71.2485 7.76034 71.2812 7.45739 71.3554 7.16241C71.5682 6.21131 72.1255 5.39174 72.8797 4.83447C73.4776 4.37526 74.2071 4.08825 75.0027 4.03165C75.1096 4.01491 75.2076 4.01491 75.3145 4.01491C76.708 4.01491 77.9374 4.7117 78.6669 5.77681C78.9618 6.20333 79.1835 6.69523 79.2983 7.21981C79.3557 7.49805 79.3884 7.78506 79.3884 8.08004Z" fill="#141720"/>
<path d="M114.409 32.5466C116.656 32.5466 118.478 30.7248 118.478 28.4774C118.478 26.2301 116.656 24.4083 114.409 24.4083C112.161 24.4083 110.34 26.2301 110.34 28.4774C110.34 30.7248 112.161 32.5466 114.409 32.5466Z" fill="#141720"/>
<path d="M44.651 77.2438C44.651 77.9079 44.5442 78.5386 44.3393 79.1373C44.1918 79.5965 43.9869 80.0222 43.7326 80.424C42.8883 81.7761 41.5115 82.7679 39.8963 83.1044C39.5359 83.1857 39.1501 83.2271 38.765 83.2271C38.7323 83.2351 38.6917 83.2351 38.659 83.2351C35.3472 83.2351 32.6589 80.5548 32.6589 77.243C32.6589 76.2672 32.8965 75.3408 33.3071 74.53C33.4299 74.2837 33.5694 74.0469 33.7336 73.8253C34.8155 72.2675 36.6188 71.2438 38.6598 71.2438C38.832 71.2438 39.0042 71.2518 39.1756 71.2685C40.4129 71.3746 41.545 71.8585 42.4538 72.6047C43.7988 73.7025 44.651 75.3751 44.651 77.2438Z" fill="#141720"/>
<path d="M55.9542 86.613C55.9542 89.2519 54.2497 91.4905 51.8803 92.2854C51.5686 92.3922 51.2497 92.4735 50.9133 92.523C50.6016 92.5804 50.2819 92.6051 49.9542 92.6051C47.1671 92.6051 44.8312 90.7116 44.167 88.1381C44.0937 87.8846 44.0355 87.6135 44.0116 87.3433C43.9789 87.1057 43.9622 86.8594 43.9622 86.6138C43.9622 84.9579 44.6342 83.4663 45.7081 82.3844C45.8229 82.2696 45.9377 82.1628 46.0525 82.0727C47.1017 81.1543 48.4626 80.6138 49.9542 80.6138C53.266 80.613 55.9542 83.3013 55.9542 86.613Z" fill="#141720"/>
<path d="M41.5856 33.8261C41.5856 37.1379 38.9053 39.8261 35.5935 39.8261H35.5361C33.9217 39.8094 32.454 39.1541 31.3809 38.0882C30.9377 37.6616 30.5614 37.1538 30.2743 36.5965C29.8399 35.7682 29.5935 34.8259 29.5935 33.8261C29.5935 31.3427 31.1099 29.2117 33.2656 28.31C33.9783 27.9983 34.766 27.8349 35.5935 27.8349C35.8638 27.8349 36.1261 27.8516 36.3884 27.8923C39.044 28.2367 41.1423 30.3183 41.5115 32.9659C41.5609 33.2441 41.5856 33.5311 41.5856 33.8261Z" fill="#141720"/>
<path d="M90.7148 18.1476C94.0263 18.1476 96.7108 15.4631 96.7108 12.1515C96.7108 8.84002 94.0263 6.1555 90.7148 6.1555C87.4033 6.1555 84.7188 8.84002 84.7188 12.1515C84.7188 15.4631 87.4033 18.1476 90.7148 18.1476Z" fill="#141720"/>
<path d="M67.3476 10.9573C67.3476 11.7274 67.2001 12.4657 66.9298 13.1457C66.0608 15.3748 63.8891 16.9573 61.3475 16.9573C59.946 16.9573 58.6505 16.4734 57.634 15.6618C56.3472 14.6533 55.495 13.129 55.3802 11.3918C55.3634 11.2523 55.3555 11.1048 55.3555 10.9573C55.3555 10.4247 55.4288 9.90014 55.5683 9.40825C56.2404 6.8507 58.5683 4.96523 61.3467 4.96523C62.2731 4.96523 63.1501 5.17889 63.929 5.55518C64.9782 6.04708 65.8551 6.83396 66.4539 7.81775C67.0199 8.7274 67.3476 9.80129 67.3476 10.9573Z" fill="#141720"/>
<path d="M38.6104 61.1213C38.6104 62.5475 38.1106 63.859 37.2743 64.8834C36.1757 66.2435 34.4959 67.1125 32.6104 67.1125C32.0284 67.1125 31.4544 67.0304 30.9218 66.8662C30.5041 66.7514 30.0943 66.58 29.7172 66.3663C27.8732 65.3498 26.6191 63.383 26.6191 61.1205C26.6191 59.5882 27.1932 58.1938 28.1435 57.1366C28.381 56.8496 28.6601 56.5873 28.963 56.3665C29.9715 55.5796 31.2415 55.1204 32.6104 55.1204C33.2657 55.1204 33.8892 55.2273 34.4791 55.4234C36.8724 56.2031 38.6104 58.4656 38.6104 61.1213Z" fill="#141720"/>
<path d="M106.883 30.1405C110.194 30.1405 112.879 27.456 112.879 24.1444C112.879 20.8329 110.194 18.1484 106.883 18.1484C103.571 18.1484 100.887 20.8329 100.887 24.1444C100.887 27.456 103.571 30.1405 106.883 30.1405Z" fill="#141720"/>
<path d="M115.688 43.2176C119 43.2176 121.685 40.5327 121.685 37.2208C121.685 33.9088 119 31.2239 115.688 31.2239C112.376 31.2239 109.691 33.9088 109.691 37.2208C109.691 40.5327 112.376 43.2176 115.688 43.2176Z" fill="#141720"/>
<path d="M55.3555 18.1452C55.3555 21.4569 52.6672 24.1452 49.3555 24.1452C48.8716 24.1452 48.4044 24.0878 47.954 23.973C45.7408 23.4484 44.0028 21.6865 43.503 19.4567C43.4041 19.0389 43.3555 18.5956 43.3555 18.1452C43.3555 18.0392 43.3555 17.9323 43.3722 17.8255C43.5277 14.6621 46.1506 12.1531 49.3555 12.1531C49.7079 12.1531 50.0603 12.1858 50.3967 12.2512C51.1015 12.366 51.7656 12.6123 52.3555 12.956C53.9046 13.8497 55.0111 15.4067 55.2822 17.2427C55.3316 17.5393 55.3555 17.8343 55.3555 18.1452Z" fill="#141720"/>
<path d="M39.5605 69.2682C39.5605 69.973 39.4218 70.653 39.1754 71.2685C38.3806 73.2273 36.4537 74.6129 34.2086 74.6129H34.1353C33.8483 74.605 33.578 74.5802 33.307 74.5308C30.7821 74.1043 28.856 71.9079 28.856 69.2682C28.856 68.1943 29.1677 67.2026 29.717 66.3663C29.9386 66.0219 30.2009 65.703 30.5039 65.4152C31.4629 64.4808 32.7656 63.9156 34.2086 63.9156C35.3479 63.9156 36.405 64.2767 37.274 64.8826C38.6596 65.8505 39.5605 67.4489 39.5605 69.2682Z" fill="#141720"/>
<path d="M43.9622 28.4735C43.9622 30.3589 42.9864 32.014 41.5115 32.9651C40.6752 33.5144 39.6754 33.8253 38.6095 33.8253C36.7982 33.8253 35.1997 32.9237 34.2239 31.5468C33.6172 30.6778 33.2568 29.6127 33.2568 28.4735C33.2568 28.4161 33.2568 28.3666 33.2648 28.3092C33.331 25.8665 35.0522 23.8415 37.3387 23.285C37.7405 23.1782 38.167 23.1288 38.6095 23.1288C39.036 23.1288 39.4538 23.1782 39.8476 23.277C42.1588 23.8255 43.888 25.8673 43.9542 28.318C43.9622 28.3666 43.9622 28.424 43.9622 28.4735Z" fill="#141720"/>
<path d="M82.3173 15.0304C85.2717 15.0304 87.6667 12.6353 87.6667 9.68089C87.6667 6.72645 85.2717 4.33141 82.3173 4.33141C79.3628 4.33141 76.9678 6.72645 76.9678 9.68089C76.9678 12.6353 79.3628 15.0304 82.3173 15.0304Z" fill="#141720"/>
<path d="M38.0115 47.4326C38.0115 48.3263 37.7987 49.1618 37.4136 49.9001C36.7989 51.0888 35.7497 52.0152 34.471 52.4656C33.9057 52.6705 33.2911 52.7853 32.6596 52.7853C31.1927 52.7853 29.8645 52.1953 28.8975 51.2363C28.7005 51.0401 28.5204 50.8344 28.3641 50.6136C27.7 49.7287 27.3149 48.6301 27.3149 47.4334C27.3149 45.9338 27.9296 44.5809 28.9294 43.6138C29.257 43.2862 29.6261 43.0071 30.0272 42.7855C30.8061 42.343 31.6998 42.0887 32.658 42.0887C33.4864 42.0887 34.2725 42.2769 34.9692 42.6213C35.7234 42.9737 36.3796 43.4982 36.8874 44.1544C37.5938 45.0552 38.0115 46.1945 38.0115 47.4326Z" fill="#141720"/>
<path d="M119.211 57.312C122.165 57.312 124.56 54.9173 124.56 51.9633C124.56 49.0093 122.165 46.6147 119.211 46.6147C116.257 46.6147 113.863 49.0093 113.863 51.9633C113.863 54.9173 116.257 57.312 119.211 57.312Z" fill="#141720"/>
<path d="M115.688 71.8154C118.642 71.8154 121.037 69.4207 121.037 66.4667C121.037 63.5127 118.642 61.1181 115.688 61.1181C112.734 61.1181 110.34 63.5127 110.34 66.4667C110.34 69.4207 112.734 71.8154 115.688 71.8154Z" fill="#141720"/>
<path d="M48.0279 23.1287C48.0279 23.4158 48.0032 23.7028 47.9538 23.973C47.6261 26.1041 46.0277 27.8094 43.954 28.3172C43.5443 28.424 43.1177 28.4727 42.6753 28.4727C40.6343 28.4727 38.8557 27.3246 37.962 25.6369C37.5769 24.9321 37.3553 24.1365 37.3385 23.2842C37.3306 23.2348 37.3306 23.1774 37.3306 23.128C37.3306 20.1694 39.7239 17.7761 42.6753 17.7761C42.9128 17.7761 43.1424 17.7928 43.3721 17.8255C43.8879 17.8917 44.3885 18.0304 44.8477 18.2433C46.7245 19.0636 48.0279 20.9411 48.0279 23.1287Z" fill="#141720"/>
<path d="M103.022 24.3613C105.976 24.3613 108.371 21.9662 108.371 19.0118C108.371 16.0574 105.976 13.6623 103.022 13.6623C100.067 13.6623 97.6721 16.0574 97.6721 19.0118C97.6721 21.9662 100.067 24.3613 103.022 24.3613Z" fill="#141720"/>
<path d="M73.9871 8.08004C73.9871 9.30141 73.5773 10.4327 72.8805 11.3344C71.9047 12.6131 70.3724 13.4327 68.6432 13.4327C68.0445 13.4327 67.4633 13.3338 66.9299 13.1457C64.9384 12.4816 63.4795 10.6782 63.3073 8.51453C63.2985 8.36704 63.2905 8.22753 63.2905 8.08004C63.2905 7.17038 63.5201 6.30936 63.9299 5.55518C64.8236 3.87539 66.6023 2.73534 68.6432 2.73534C70.3724 2.73534 71.9055 3.5549 72.8805 4.83367C73.3724 5.46509 73.7248 6.21928 73.889 7.03884C73.9544 7.37528 73.9871 7.71968 73.9871 8.08004Z" fill="#141720"/>
<path d="M118.479 157.555V157.564H31.5195V157.555C31.5195 145.498 36.421 134.597 44.3559 126.728C44.6509 126.433 44.9459 126.146 45.2496 125.859C46.4622 124.727 47.733 123.662 49.0612 122.671C49.471 122.367 49.8888 122.063 50.3073 121.777C51.1683 121.187 52.0533 120.622 52.9549 120.097C53.3815 119.843 53.816 119.596 54.2505 119.359C54.2584 119.342 54.2752 119.342 54.2752 119.342C54.6276 119.154 54.972 118.949 55.3164 118.735C55.5787 118.588 55.8322 118.432 56.0785 118.259C56.8327 117.776 57.5702 117.251 58.2669 116.694V116.686C62.226 113.53 65.2914 109.309 67.0294 104.448C67.6768 102.653 68.136 100.767 68.3983 98.8244C68.5537 97.6277 68.6359 96.4071 68.6359 95.169L75.005 95.2017L81.4882 95.2344C81.4882 96.4478 81.5703 97.6365 81.7178 98.8076C81.9713 100.743 82.4225 102.627 83.054 104.414C84.7832 109.283 87.8326 113.521 91.7829 116.701C92.0779 116.93 92.3729 117.16 92.6766 117.382C92.6766 117.382 92.6846 117.382 92.6934 117.39C92.923 117.571 93.1606 117.735 93.3989 117.89C93.4643 117.947 93.5377 117.997 93.6118 118.038C93.6772 118.087 93.7346 118.128 93.8 118.169C93.8247 118.186 93.8494 118.202 93.8741 118.219C94.1444 118.399 94.4234 118.571 94.7016 118.743C95.0381 118.948 95.3817 119.153 95.7261 119.341C95.7835 119.358 95.8329 119.383 95.8744 119.415C96.2594 119.629 96.6453 119.85 97.0216 120.08C97.5215 120.366 98.0134 120.67 98.4973 120.981C99.3575 121.539 100.186 122.113 101.005 122.735H101.022C102.677 123.973 104.243 125.325 105.702 126.784C113.601 134.654 118.479 145.523 118.479 157.555Z" fill="#B08874"/>
<path d="M118.479 157.555H31.5195C31.5195 145.498 36.421 134.597 44.3559 126.728C44.6509 126.433 44.9459 126.146 45.2496 125.859C46.4622 124.728 47.733 123.662 49.0612 122.671C49.471 122.367 49.8888 122.063 50.3073 121.777C51.1683 121.187 52.0453 120.622 52.9462 120.088C53.3727 119.835 53.8072 119.588 54.2417 119.351C54.2584 119.334 54.2744 119.342 54.2744 119.342V119.334C54.9712 118.949 55.6592 118.531 56.3233 118.088C56.635 117.883 56.938 117.67 57.2409 117.441C57.2736 117.425 57.2983 117.399 57.331 117.383C57.5518 117.219 57.7735 117.047 57.9951 116.868C58.0772 116.801 58.1593 116.736 58.2414 116.671H58.2494C58.2574 116.679 58.2574 116.679 58.2662 116.687C58.7907 117.228 59.348 117.736 59.922 118.228C59.922 118.236 59.922 118.236 59.93 118.236C61.381 119.458 62.9794 120.507 64.7007 121.351C67.7988 122.876 71.2827 123.736 74.9707 123.745H75.0369C81.5942 123.745 87.5209 121.039 91.7821 116.703L91.7909 116.695L91.7989 116.687C92.1026 116.94 92.4136 117.178 92.7341 117.416C92.9469 117.58 93.1685 117.736 93.3981 117.892C93.4635 117.941 93.5369 117.99 93.611 118.039C93.6764 118.089 93.7338 118.13 93.7992 118.171C93.8239 118.188 93.8486 118.204 93.8733 118.22C94.1436 118.401 94.4226 118.573 94.7008 118.745C95.0373 118.95 95.3809 119.146 95.7253 119.335C95.7827 119.352 95.8242 119.384 95.8736 119.408C96.2587 119.622 96.6525 119.843 97.0288 120.072C97.5294 120.367 98.0206 120.671 98.4965 120.983C99.3567 121.531 100.185 122.114 101.005 122.728H101.021C102.676 123.966 104.242 125.327 105.701 126.786C113.601 134.654 118.479 145.523 118.479 157.555Z" fill="#EFC7A1"/>
<path d="M97.0274 120.072L97.0194 120.08L96.1257 120.99C90.5028 126.719 83.0031 129.867 75.0028 129.876C74.9948 129.876 74.9948 129.876 74.9861 129.876C66.8957 129.859 59.404 126.696 53.8058 120.974L52.9535 120.097L52.9456 120.088C53.3721 119.835 53.8066 119.588 54.2411 119.351C54.2578 119.334 54.2738 119.342 54.2738 119.342V119.334C54.6261 119.137 54.9705 118.94 55.315 118.735C55.5685 118.58 55.8228 118.424 56.0771 118.259C56.1592 118.203 56.2413 118.145 56.3235 118.087C56.6352 117.882 56.9461 117.67 57.2411 117.44C57.2738 117.424 57.2985 117.398 57.3312 117.383C57.552 117.21 57.7816 117.038 57.9953 116.867C58.0774 116.801 58.1595 116.735 58.2416 116.67C58.2496 116.679 58.2496 116.679 58.2576 116.686H58.2655V116.694C58.7901 117.235 59.3394 117.743 59.9214 118.227C59.9214 118.236 59.9214 118.236 59.9294 118.236C61.3804 119.457 62.9788 120.514 64.7001 121.35C67.7981 122.875 71.2821 123.735 74.9701 123.744H75.0363C81.5936 123.744 87.5203 121.038 91.7815 116.702L91.7903 116.694L91.7983 116.686C92.0853 116.923 92.3723 117.153 92.676 117.383C92.676 117.383 92.684 117.383 92.6928 117.391C92.7015 117.399 92.7175 117.407 92.7342 117.415C92.9471 117.579 93.1687 117.735 93.3983 117.891C93.4637 117.941 93.5371 117.989 93.6112 118.039C93.6766 118.088 93.734 118.129 93.7993 118.17C93.8241 118.187 93.8488 118.203 93.8735 118.22C94.1438 118.4 94.4228 118.572 94.701 118.744C95.0375 118.949 95.3811 119.145 95.7255 119.334C95.7829 119.351 95.8243 119.384 95.8738 119.407C96.258 119.621 96.6511 119.842 97.0274 120.072Z" fill="#543E36"/>
<path d="M108.372 44.9739V64.5143C108.372 66.3503 108.241 68.1617 107.995 69.9403C107.396 74.3666 106.077 78.572 104.257 82.4482C103.725 83.5875 103.151 84.7028 102.536 85.7847C102.397 86.031 102.257 86.2766 102.118 86.5141C100.871 88.6125 99.4867 90.596 98.003 92.4241C97.6259 92.9 97.2329 93.3672 96.8311 93.8177C92.6264 98.6458 87.7409 102.326 83.0524 104.415C80.2413 105.661 77.4868 106.342 75.0034 106.342C72.536 106.342 69.815 105.678 67.0278 104.449C62.3145 102.366 57.3964 98.6697 53.159 93.8177C52.7245 93.317 52.298 92.8092 51.8803 92.2846C49.9709 89.908 48.2249 87.2851 46.7413 84.4732C46.3801 83.7844 46.0365 83.0884 45.7088 82.3828C45.5119 81.9651 45.3238 81.5386 45.1436 81.112C44.8566 80.4647 44.5943 79.8006 44.34 79.1365C43.5531 77.0381 42.9137 74.8497 42.4545 72.6039C42.2743 71.7269 42.1189 70.8412 42.004 69.9395C41.7577 68.1609 41.627 66.3495 41.627 64.5135V44.9731H108.372V44.9739Z" fill="#B08874"/>
<path d="M40.8098 70.1077C43.2589 70.1077 45.2441 68.1226 45.2441 65.6735V44.3824H40.8098V70.1077Z" fill="#141720"/>
<path d="M104.757 44.3824H109.191V70.1085C106.742 70.1085 104.757 68.1234 104.757 65.6743V44.3824Z" fill="#141720"/>
<path d="M66.6979 51.1007C69.6523 51.1007 72.0474 48.7057 72.0474 45.7512C72.0474 42.7968 69.6523 40.4017 66.6979 40.4017C63.7434 40.4017 61.3484 42.7968 61.3484 45.7512C61.3484 48.7057 63.7434 51.1007 66.6979 51.1007Z" fill="#141720"/>
<path d="M54.3287 49.8897C57.2832 49.8897 59.6782 47.4947 59.6782 44.5402C59.6782 41.5858 57.2832 39.1908 54.3287 39.1908C51.3743 39.1908 48.9792 41.5858 48.9792 44.5402C48.9792 47.4947 51.3743 49.8897 54.3287 49.8897Z" fill="#141720"/>
<path d="M41.6295 51.9641C44.584 51.9641 46.979 49.5691 46.979 46.6147C46.979 43.6602 44.584 41.2652 41.6295 41.2652C38.6751 41.2652 36.28 43.6602 36.28 46.6147C36.28 49.5691 38.6751 51.9641 41.6295 51.9641Z" fill="#141720"/>
<path d="M82.3173 50.5219C85.2717 50.5219 87.6667 48.1269 87.6667 45.1724C87.6667 42.218 85.2717 39.823 82.3173 39.823C79.3628 39.823 76.9678 42.218 76.9678 45.1724C76.9678 48.1269 79.3628 50.5219 82.3173 50.5219Z" fill="#141720"/>
<path d="M98.4918 50.5219C101.446 50.5219 103.841 48.1269 103.841 45.1724C103.841 42.218 101.446 39.823 98.4918 39.823C95.5374 39.823 93.1423 42.218 93.1423 45.1724C93.1423 48.1269 95.5374 50.5219 98.4918 50.5219Z" fill="#141720"/>
<path d="M109.59 55.5892C112.544 55.5892 114.939 53.1945 114.939 50.2405C114.939 47.2865 112.544 44.8918 109.59 44.8918C106.636 44.8918 104.241 47.2865 104.241 50.2405C104.241 53.1945 106.636 55.5892 109.59 55.5892Z" fill="#141720"/>
<path d="M75.0003 50.223C77.2476 50.223 79.0694 48.4012 79.0694 46.1538C79.0694 43.9065 77.2476 42.0847 75.0003 42.0847C72.753 42.0847 70.9312 43.9065 70.9312 46.1538C70.9312 48.4012 72.753 50.223 75.0003 50.223Z" fill="#141720"/>
<path d="M47.4278 49.8204C49.6751 49.8204 51.4969 47.9986 51.4969 45.7512C51.4969 43.5039 49.6751 41.6821 47.4278 41.6821C45.1804 41.6821 43.3586 43.5039 43.3586 45.7512C43.3586 47.9986 45.1804 49.8204 47.4278 49.8204Z" fill="#141720"/>
<path d="M61.3484 49.8204C63.5957 49.8204 65.4175 47.9986 65.4175 45.7512C65.4175 43.5039 63.5957 41.6821 61.3484 41.6821C59.1011 41.6821 57.2793 43.5039 57.2793 45.7512C57.2793 47.9986 59.1011 49.8204 61.3484 49.8204Z" fill="#141720"/>
<path d="M90.7146 51.0999C92.9619 51.0999 94.7837 49.2781 94.7837 47.0308C94.7837 44.7835 92.9619 42.9617 90.7146 42.9617C88.4673 42.9617 86.6455 44.7835 86.6455 47.0308C86.6455 49.2781 88.4673 51.0999 90.7146 51.0999Z" fill="#141720"/>
<path d="M103.841 51.0999C106.089 51.0999 107.91 49.2781 107.91 47.0308C107.91 44.7835 106.089 42.9617 103.841 42.9617C101.594 42.9617 99.7722 44.7835 99.7722 47.0308C99.7722 49.2781 101.594 51.0999 103.841 51.0999Z" fill="#141720"/>
<path d="M103.086 55.0853C103.086 54.9546 102.987 54.8398 102.856 54.823C101.725 54.6508 96.651 53.954 91.2003 53.954C85.0041 53.954 77.0118 55.8961 75.6182 55.8961H74.3801C73.7327 55.8961 71.6512 55.4696 68.9868 55.0271C65.9294 54.5113 62.109 53.9532 58.806 53.9532C54.8142 53.9532 51.0186 54.3303 48.8389 54.5926C48.0361 54.6915 47.4541 54.7728 47.1504 54.8222C47.0108 54.839 46.9128 54.9538 46.9128 55.0845L46.8474 58.4122C46.8474 58.535 46.9208 58.6338 47.0276 58.6825L47.4047 58.814C47.962 59.0269 47.9133 69.0514 50.9054 71.5595C52.684 73.0352 54.2657 73.8795 60.9211 73.8795C64.7821 73.8795 67.2081 72.8383 69.5114 69.7322C71.1752 67.5031 72.6429 62.2238 72.6429 62.2238C73.0934 60.0513 74.7086 59.8791 74.9701 59.8632C74.9868 59.8632 75.0036 59.8632 75.0036 59.8632C75.053 59.8632 76.8803 59.8959 77.3562 62.2238C77.3562 62.2238 78.8319 67.5023 80.4878 69.7322C82.791 72.8383 85.217 73.8795 89.0772 73.8795C95.7334 73.8795 97.3151 73.0352 99.093 71.5595C102.085 69.0514 102.036 59.0269 102.594 58.814L102.971 58.6825C103.078 58.633 103.151 58.535 103.151 58.4122L103.086 55.0853Z" fill="#1A1A1A"/>
<path d="M114.989 80.0701C118.301 80.0701 120.985 77.3855 120.985 74.074C120.985 70.7625 118.301 68.078 114.989 68.078C111.678 68.078 108.993 70.7625 108.993 74.074C108.993 77.3855 111.678 80.0701 114.989 80.0701Z" fill="#141720"/>
<path d="M120.985 48.5257C123.232 48.5257 125.054 46.7038 125.054 44.4565C125.054 42.2092 123.232 40.3874 120.985 40.3874C118.738 40.3874 116.916 42.2092 116.916 44.4565C116.916 46.7038 118.738 48.5257 120.985 48.5257Z" fill="#141720"/>
<path d="M120.033 63.8462C122.281 63.8462 124.102 62.0244 124.102 59.7771C124.102 57.5298 122.281 55.708 120.033 55.708C117.786 55.708 115.964 57.5298 115.964 59.7771C115.964 62.0244 117.786 63.8462 120.033 63.8462Z" fill="#141720"/>
</g>
<defs>
<clipPath id="clip0_45_349">
<rect width="150" height="150" rx="75" fill="white"/>
</clipPath>
</defs>
</svg>
